<svg xmlns="http://www.w3.org/2000/svg" xmlns:xlink="http://www.w3.org/1999/xlink" width="100" zoomAndPan="magnify" viewBox="0 0 75 37.5" height="50" preserveAspectRatio="xMidYMid meet" version="1.0"><defs><g/></defs><g fill="#ffc1b2" fill-opacity="0.302"><g transform="translate(8.805087, 22.007725)"><g><path d="M 9.160156 -0.179688 C 9.160156 -0.222656 9.140625 -0.25 9.109375 -0.273438 C 8.878906 -0.464844 8.726562 -0.703125 8.648438 -1.007812 L 6.242188 -9.320312 C 6.191406 -9.480469 6.21875 -9.632812 6.339844 -9.753906 C 6.371094 -9.804688 6.371094 -9.855469 6.351562 -9.914062 C 6.320312 -9.976562 6.269531 -10.003906 6.210938 -10.003906 L 3.554688 -10.003906 C 3.492188 -10.003906 3.441406 -9.976562 3.414062 -9.914062 C 3.382812 -9.855469 3.382812 -9.804688 3.421875 -9.753906 C 3.542969 -9.632812 3.574219 -9.480469 3.523438 -9.320312 L 1.128906 -0.996094 C 1.046875 -0.714844 0.886719 -0.472656 0.652344 -0.273438 C 0.625 -0.242188 0.605469 -0.210938 0.605469 -0.179688 C 0.59375 -0.128906 0.605469 -0.0898438 0.632812 -0.0507812 C 0.664062 -0.0117188 0.703125 0 0.765625 0 L 3.101562 0 C 3.160156 0 3.210938 -0.0195312 3.230469 -0.0820312 C 3.25 -0.140625 3.25 -0.191406 3.210938 -0.242188 C 3.089844 -0.363281 3.058594 -0.511719 3.101562 -0.675781 L 3.414062 -1.722656 C 3.441406 -1.832031 3.503906 -1.921875 3.59375 -1.984375 C 3.675781 -2.042969 3.773438 -2.082031 3.894531 -2.082031 L 5.878906 -2.082031 C 5.988281 -2.082031 6.089844 -2.042969 6.179688 -1.984375 C 6.261719 -1.921875 6.320312 -1.832031 6.363281 -1.722656 L 6.664062 -0.675781 C 6.703125 -0.511719 6.664062 -0.371094 6.5625 -0.25 L 6.5625 -0.242188 C 6.523438 -0.179688 6.523438 -0.128906 6.554688 -0.0820312 C 6.574219 -0.0195312 6.625 0 6.695312 0 L 9.007812 0 C 9.058594 0 9.097656 -0.0117188 9.128906 -0.0507812 C 9.160156 -0.0898438 9.171875 -0.128906 9.160156 -0.179688 Z M 5.535156 -4.078125 L 4.238281 -4.078125 C 4.199219 -4.078125 4.167969 -4.085938 4.148438 -4.117188 C 4.117188 -4.148438 4.105469 -4.1875 4.128906 -4.226562 L 4.78125 -6.472656 C 4.792969 -6.523438 4.820312 -6.554688 4.882812 -6.554688 C 4.941406 -6.554688 4.972656 -6.523438 4.992188 -6.472656 L 5.636719 -4.226562 C 5.648438 -4.1875 5.636719 -4.148438 5.617188 -4.117188 C 5.597656 -4.085938 5.566406 -4.078125 5.535156 -4.078125 Z M 5.535156 -4.078125 "/></g></g></g><g fill="#ffc1b2" fill-opacity="0.302"><g transform="translate(18.574426, 22.007725)"><g><path d="M 9.382812 -0.25 L 9.371094 -0.261719 C 9.210938 -0.421875 9.140625 -0.625 9.140625 -0.867188 L 9.140625 -9.140625 C 9.140625 -9.371094 9.210938 -9.574219 9.371094 -9.742188 L 9.382812 -9.753906 C 9.410156 -9.804688 9.410156 -9.855469 9.390625 -9.914062 C 9.359375 -9.976562 9.3125 -10.003906 9.25 -10.003906 L 7.027344 -10.003906 C 6.957031 -10.003906 6.90625 -9.976562 6.886719 -9.914062 C 6.855469 -9.855469 6.855469 -9.804688 6.894531 -9.753906 L 6.90625 -9.742188 C 7.054688 -9.574219 7.136719 -9.371094 7.136719 -9.140625 L 7.136719 -4.136719 C 7.136719 -4.097656 7.117188 -4.066406 7.078125 -4.054688 C 7.035156 -4.046875 7.003906 -4.054688 6.984375 -4.097656 L 3.835938 -9.390625 C 3.753906 -9.511719 3.773438 -9.632812 3.875 -9.753906 C 3.90625 -9.804688 3.90625 -9.855469 3.886719 -9.914062 C 3.855469 -9.976562 3.804688 -10.003906 3.746094 -10.003906 L 3.472656 -10.003906 L 3.472656 -9.996094 L 3.472656 -10.003906 L 1.367188 -10.003906 C 1.296875 -10.003906 1.25 -9.976562 1.226562 -9.914062 C 1.199219 -9.855469 1.199219 -9.804688 1.238281 -9.753906 C 1.398438 -9.574219 1.480469 -9.371094 1.480469 -9.148438 L 1.480469 -0.855469 C 1.480469 -0.625 1.398438 -0.421875 1.238281 -0.25 C 1.199219 -0.191406 1.199219 -0.140625 1.226562 -0.0820312 C 1.25 -0.0195312 1.296875 0 1.367188 0 L 3.59375 0 C 3.652344 0 3.703125 -0.0195312 3.734375 -0.0820312 C 3.753906 -0.140625 3.753906 -0.191406 3.722656 -0.25 L 3.703125 -0.273438 C 3.542969 -0.433594 3.472656 -0.632812 3.472656 -0.875 L 3.472656 -5.867188 C 3.472656 -5.910156 3.484375 -5.929688 3.523438 -5.9375 C 3.5625 -5.949219 3.59375 -5.9375 3.625 -5.910156 L 6.785156 -0.605469 C 6.84375 -0.472656 6.835938 -0.351562 6.742188 -0.25 C 6.703125 -0.191406 6.703125 -0.140625 6.734375 -0.0820312 C 6.753906 -0.0195312 6.804688 0 6.875 0 L 9.25 0 C 9.3125 0 9.359375 -0.0195312 9.390625 -0.0820312 C 9.410156 -0.140625 9.410156 -0.191406 9.382812 -0.25 Z M 9.382812 -0.25 "/></g></g></g><g fill="#ffc1b2" fill-opacity="0.302"><g transform="translate(29.188893, 22.007725)"><g><path d="M 13.238281 -10.003906 L 11.074219 -10.003906 L 11.074219 -9.996094 L 11.074219 -10.003906 L 10.882812 -10.003906 C 10.8125 -10.003906 10.761719 -9.976562 10.738281 -9.914062 C 10.710938 -9.855469 10.710938 -9.804688 10.75 -9.753906 L 10.789062 -9.714844 C 10.890625 -9.59375 10.921875 -9.472656 10.882812 -9.332031 L 9.21875 -3.582031 C 9.199219 -3.523438 9.160156 -3.492188 9.097656 -3.492188 C 9.039062 -3.492188 9 -3.523438 8.980469 -3.582031 L 8.253906 -6.109375 C 8.203125 -6.25 8.234375 -6.382812 8.34375 -6.492188 L 8.363281 -6.511719 C 8.394531 -6.5625 8.394531 -6.613281 8.363281 -6.671875 C 8.335938 -6.722656 8.285156 -6.753906 8.222656 -6.753906 L 5.769531 -6.753906 C 5.707031 -6.753906 5.65625 -6.722656 5.625 -6.671875 C 5.597656 -6.613281 5.597656 -6.5625 5.636719 -6.511719 L 5.65625 -6.492188 C 5.757812 -6.371094 5.789062 -6.25 5.746094 -6.109375 L 5.023438 -3.582031 C 5.003906 -3.523438 4.960938 -3.492188 4.902344 -3.492188 C 4.832031 -3.492188 4.792969 -3.523438 4.78125 -3.582031 L 3.121094 -9.332031 C 3.082031 -9.472656 3.109375 -9.59375 3.210938 -9.714844 L 3.25 -9.753906 C 3.28125 -9.804688 3.28125 -9.855469 3.261719 -9.914062 C 3.230469 -9.976562 3.179688 -10.003906 3.121094 -10.003906 L 0.765625 -10.003906 C 0.695312 -10.003906 0.644531 -9.976562 0.625 -9.914062 C 0.59375 -9.855469 0.59375 -9.804688 0.632812 -9.753906 C 0.894531 -9.511719 1.078125 -9.210938 1.175781 -8.867188 L 3.554688 -0.652344 C 3.59375 -0.503906 3.554688 -0.371094 3.453125 -0.25 C 3.414062 -0.191406 3.414062 -0.140625 3.441406 -0.0820312 C 3.472656 -0.0195312 3.523438 0 3.582031 0 L 6.210938 0 C 6.269531 0 6.3125 -0.0195312 6.339844 -0.0820312 C 6.371094 -0.140625 6.371094 -0.191406 6.339844 -0.25 L 6.332031 -0.25 C 6.230469 -0.351562 6.199219 -0.484375 6.242188 -0.632812 L 6.875 -2.828125 C 6.894531 -2.890625 6.933594 -2.917969 6.996094 -2.917969 C 7.054688 -2.917969 7.105469 -2.890625 7.125 -2.828125 L 7.75 -0.644531 C 7.789062 -0.492188 7.761719 -0.363281 7.660156 -0.261719 L 7.648438 -0.25 C 7.609375 -0.191406 7.609375 -0.140625 7.640625 -0.0820312 C 7.671875 -0.0195312 7.71875 0 7.78125 0 L 10.429688 0 C 10.488281 0 10.539062 -0.0195312 10.558594 -0.0820312 C 10.578125 -0.140625 10.578125 -0.191406 10.539062 -0.25 C 10.429688 -0.351562 10.398438 -0.484375 10.449219 -0.625 L 12.824219 -8.878906 C 12.875 -9.039062 12.945312 -9.199219 13.035156 -9.351562 C 13.117188 -9.503906 13.226562 -9.632812 13.367188 -9.753906 C 13.398438 -9.804688 13.398438 -9.855469 13.378906 -9.914062 C 13.347656 -9.976562 13.296875 -10.003906 13.238281 -10.003906 Z M 13.238281 -10.003906 "/></g></g></g><g fill="#ffc1b2" fill-opacity="0.302"><g transform="translate(43.183891, 22.007725)"><g><path d="M 9.160156 -0.179688 C 9.160156 -0.222656 9.140625 -0.25 9.109375 -0.273438 C 8.878906 -0.464844 8.726562 -0.703125 8.648438 -1.007812 L 6.242188 -9.320312 C 6.191406 -9.480469 6.21875 -9.632812 6.339844 -9.753906 C 6.371094 -9.804688 6.371094 -9.855469 6.351562 -9.914062 C 6.320312 -9.976562 6.269531 -10.003906 6.210938 -10.003906 L 3.554688 -10.003906 C 3.492188 -10.003906 3.441406 -9.976562 3.414062 -9.914062 C 3.382812 -9.855469 3.382812 -9.804688 3.421875 -9.753906 C 3.542969 -9.632812 3.574219 -9.480469 3.523438 -9.320312 L 1.128906 -0.996094 C 1.046875 -0.714844 0.886719 -0.472656 0.652344 -0.273438 C 0.625 -0.242188 0.605469 -0.210938 0.605469 -0.179688 C 0.59375 -0.128906 0.605469 -0.0898438 0.632812 -0.0507812 C 0.664062 -0.0117188 0.703125 0 0.765625 0 L 3.101562 0 C 3.160156 0 3.210938 -0.0195312 3.230469 -0.0820312 C 3.25 -0.140625 3.25 -0.191406 3.210938 -0.242188 C 3.089844 -0.363281 3.058594 -0.511719 3.101562 -0.675781 L 3.414062 -1.722656 C 3.441406 -1.832031 3.503906 -1.921875 3.59375 -1.984375 C 3.675781 -2.042969 3.773438 -2.082031 3.894531 -2.082031 L 5.878906 -2.082031 C 5.988281 -2.082031 6.089844 -2.042969 6.179688 -1.984375 C 6.261719 -1.921875 6.320312 -1.832031 6.363281 -1.722656 L 6.664062 -0.675781 C 6.703125 -0.511719 6.664062 -0.371094 6.5625 -0.25 L 6.5625 -0.242188 C 6.523438 -0.179688 6.523438 -0.128906 6.554688 -0.0820312 C 6.574219 -0.0195312 6.625 0 6.695312 0 L 9.007812 0 C 9.058594 0 9.097656 -0.0117188 9.128906 -0.0507812 C 9.160156 -0.0898438 9.171875 -0.128906 9.160156 -0.179688 Z M 5.535156 -4.078125 L 4.238281 -4.078125 C 4.199219 -4.078125 4.167969 -4.085938 4.148438 -4.117188 C 4.117188 -4.148438 4.105469 -4.1875 4.128906 -4.226562 L 4.78125 -6.472656 C 4.792969 -6.523438 4.820312 -6.554688 4.882812 -6.554688 C 4.941406 -6.554688 4.972656 -6.523438 4.992188 -6.472656 L 5.636719 -4.226562 C 5.648438 -4.1875 5.636719 -4.148438 5.617188 -4.117188 C 5.597656 -4.085938 5.566406 -4.078125 5.535156 -4.078125 Z M 5.535156 -4.078125 "/></g></g></g><g fill="#ffc1b2" fill-opacity="0.302"><g transform="translate(52.95323, 22.007725)"><g><path d="M 8.234375 -0.25 L 8.082031 -0.371094 C 7.921875 -0.503906 7.78125 -0.664062 7.671875 -0.84375 L 6.421875 -2.839844 C 6.382812 -2.898438 6.363281 -2.96875 6.382812 -3.050781 C 6.402344 -3.121094 6.441406 -3.179688 6.511719 -3.230469 C 6.765625 -3.414062 6.984375 -3.613281 7.167969 -3.84375 C 7.4375 -4.175781 7.648438 -4.558594 7.789062 -4.984375 C 7.933594 -5.40625 8.011719 -5.847656 8.011719 -6.3125 C 8.011719 -6.773438 7.933594 -7.226562 7.789062 -7.648438 C 7.648438 -8.074219 7.4375 -8.457031 7.167969 -8.796875 C 6.84375 -9.179688 6.453125 -9.480469 6.007812 -9.691406 C 5.554688 -9.894531 5.0625 -10.003906 4.539062 -10.003906 L 1.359375 -10.003906 C 1.289062 -10.003906 1.238281 -9.976562 1.21875 -9.914062 C 1.1875 -9.855469 1.199219 -9.804688 1.25 -9.753906 C 1.410156 -9.574219 1.5 -9.359375 1.5 -9.121094 L 1.5 -0.867188 C 1.5 -0.632812 1.417969 -0.433594 1.269531 -0.261719 C 1.207031 -0.203125 1.199219 -0.152344 1.226562 -0.0898438 C 1.25 -0.03125 1.296875 0 1.378906 0 L 3.632812 0 C 3.695312 0 3.746094 -0.0195312 3.765625 -0.0820312 C 3.785156 -0.140625 3.785156 -0.191406 3.746094 -0.25 C 3.574219 -0.433594 3.492188 -0.632812 3.492188 -0.875 L 3.492188 -2.34375 C 3.492188 -2.425781 3.511719 -2.496094 3.574219 -2.558594 C 3.632812 -2.617188 3.703125 -2.648438 3.785156 -2.648438 L 4.027344 -2.648438 C 4.128906 -2.648438 4.21875 -2.597656 4.277344 -2.507812 L 5.515625 -0.511719 C 5.566406 -0.421875 5.554688 -0.34375 5.496094 -0.261719 L 5.484375 -0.25 C 5.445312 -0.191406 5.445312 -0.140625 5.476562 -0.0820312 C 5.496094 -0.0195312 5.546875 0 5.617188 0 L 8.164062 0 C 8.234375 0 8.273438 -0.03125 8.292969 -0.0898438 C 8.3125 -0.152344 8.292969 -0.203125 8.234375 -0.25 Z M 5.625 -5.113281 C 5.375 -4.792969 5.011719 -4.640625 4.539062 -4.640625 L 3.785156 -4.640625 C 3.703125 -4.640625 3.632812 -4.660156 3.574219 -4.722656 C 3.511719 -4.78125 3.492188 -4.851562 3.492188 -4.933594 L 3.492188 -7.710938 C 3.492188 -7.789062 3.511719 -7.863281 3.574219 -7.921875 C 3.632812 -7.980469 3.703125 -8.011719 3.785156 -8.011719 L 4.539062 -8.011719 C 4.902344 -8.011719 5.171875 -7.933594 5.375 -7.769531 C 5.578125 -7.609375 5.71875 -7.429688 5.816406 -7.226562 C 5.910156 -7.027344 5.96875 -6.835938 5.988281 -6.652344 C 6.007812 -6.472656 6.019531 -6.351562 6.019531 -6.3125 C 6.019531 -6.070312 5.980469 -5.847656 5.917969 -5.648438 C 5.847656 -5.445312 5.746094 -5.265625 5.625 -5.113281 Z M 5.625 -5.113281 "/></g></g></g><g fill="#ffc1b2" fill-opacity="0.502"><g transform="translate(9.07154, 22.120828)"><g><path d="M 9.160156 -0.179688 C 9.160156 -0.222656 9.140625 -0.25 9.109375 -0.273438 C 8.878906 -0.464844 8.726562 -0.703125 8.648438 -1.007812 L 6.242188 -9.320312 C 6.191406 -9.480469 6.21875 -9.632812 6.339844 -9.753906 C 6.371094 -9.804688 6.371094 -9.855469 6.351562 -9.914062 C 6.320312 -9.976562 6.269531 -10.003906 6.210938 -10.003906 L 3.554688 -10.003906 C 3.492188 -10.003906 3.441406 -9.976562 3.414062 -9.914062 C 3.382812 -9.855469 3.382812 -9.804688 3.421875 -9.753906 C 3.542969 -9.632812 3.574219 -9.480469 3.523438 -9.320312 L 1.128906 -0.996094 C 1.046875 -0.714844 0.886719 -0.472656 0.652344 -0.273438 C 0.625 -0.242188 0.605469 -0.210938 0.605469 -0.179688 C 0.59375 -0.128906 0.605469 -0.0898438 0.632812 -0.0507812 C 0.664062 -0.0117188 0.703125 0 0.765625 0 L 3.101562 0 C 3.160156 0 3.210938 -0.0195312 3.230469 -0.0820312 C 3.25 -0.140625 3.25 -0.191406 3.210938 -0.242188 C 3.089844 -0.363281 3.058594 -0.511719 3.101562 -0.675781 L 3.414062 -1.722656 C 3.441406 -1.832031 3.503906 -1.921875 3.59375 -1.984375 C 3.675781 -2.042969 3.773438 -2.082031 3.894531 -2.082031 L 5.878906 -2.082031 C 5.988281 -2.082031 6.089844 -2.042969 6.179688 -1.984375 C 6.261719 -1.921875 6.320312 -1.832031 6.363281 -1.722656 L 6.664062 -0.675781 C 6.703125 -0.511719 6.664062 -0.371094 6.5625 -0.25 L 6.5625 -0.242188 C 6.523438 -0.179688 6.523438 -0.128906 6.554688 -0.0820312 C 6.574219 -0.0195312 6.625 0 6.695312 0 L 9.007812 0 C 9.058594 0 9.097656 -0.0117188 9.128906 -0.0507812 C 9.160156 -0.0898438 9.171875 -0.128906 9.160156 -0.179688 Z M 5.535156 -4.078125 L 4.238281 -4.078125 C 4.199219 -4.078125 4.167969 -4.085938 4.148438 -4.117188 C 4.117188 -4.148438 4.105469 -4.1875 4.128906 -4.226562 L 4.78125 -6.472656 C 4.792969 -6.523438 4.820312 -6.554688 4.882812 -6.554688 C 4.941406 -6.554688 4.972656 -6.523438 4.992188 -6.472656 L 5.636719 -4.226562 C 5.648438 -4.1875 5.636719 -4.148438 5.617188 -4.117188 C 5.597656 -4.085938 5.566406 -4.078125 5.535156 -4.078125 Z M 5.535156 -4.078125 "/></g></g></g><g fill="#ffc1b2" fill-opacity="0.502"><g transform="translate(18.840879, 22.120828)"><g><path d="M 9.382812 -0.25 L 9.371094 -0.261719 C 9.210938 -0.421875 9.140625 -0.625 9.140625 -0.867188 L 9.140625 -9.140625 C 9.140625 -9.371094 9.210938 -9.574219 9.371094 -9.742188 L 9.382812 -9.753906 C 9.410156 -9.804688 9.410156 -9.855469 9.390625 -9.914062 C 9.359375 -9.976562 9.3125 -10.003906 9.25 -10.003906 L 7.027344 -10.003906 C 6.957031 -10.003906 6.90625 -9.976562 6.886719 -9.914062 C 6.855469 -9.855469 6.855469 -9.804688 6.894531 -9.753906 L 6.90625 -9.742188 C 7.054688 -9.574219 7.136719 -9.371094 7.136719 -9.140625 L 7.136719 -4.136719 C 7.136719 -4.097656 7.117188 -4.066406 7.078125 -4.054688 C 7.035156 -4.046875 7.003906 -4.054688 6.984375 -4.097656 L 3.835938 -9.390625 C 3.753906 -9.511719 3.773438 -9.632812 3.875 -9.753906 C 3.90625 -9.804688 3.90625 -9.855469 3.886719 -9.914062 C 3.855469 -9.976562 3.804688 -10.003906 3.746094 -10.003906 L 3.472656 -10.003906 L 3.472656 -9.996094 L 3.472656 -10.003906 L 1.367188 -10.003906 C 1.296875 -10.003906 1.25 -9.976562 1.226562 -9.914062 C 1.199219 -9.855469 1.199219 -9.804688 1.238281 -9.753906 C 1.398438 -9.574219 1.480469 -9.371094 1.480469 -9.148438 L 1.480469 -0.855469 C 1.480469 -0.625 1.398438 -0.421875 1.238281 -0.25 C 1.199219 -0.191406 1.199219 -0.140625 1.226562 -0.0820312 C 1.25 -0.0195312 1.296875 0 1.367188 0 L 3.59375 0 C 3.652344 0 3.703125 -0.0195312 3.734375 -0.0820312 C 3.753906 -0.140625 3.753906 -0.191406 3.722656 -0.25 L 3.703125 -0.273438 C 3.542969 -0.433594 3.472656 -0.632812 3.472656 -0.875 L 3.472656 -5.867188 C 3.472656 -5.910156 3.484375 -5.929688 3.523438 -5.9375 C 3.5625 -5.949219 3.59375 -5.9375 3.625 -5.910156 L 6.785156 -0.605469 C 6.84375 -0.472656 6.835938 -0.351562 6.742188 -0.25 C 6.703125 -0.191406 6.703125 -0.140625 6.734375 -0.0820312 C 6.753906 -0.0195312 6.804688 0 6.875 0 L 9.25 0 C 9.3125 0 9.359375 -0.0195312 9.390625 -0.0820312 C 9.410156 -0.140625 9.410156 -0.191406 9.382812 -0.25 Z M 9.382812 -0.25 "/></g></g></g><g fill="#ffc1b2" fill-opacity="0.502"><g transform="translate(29.455345, 22.120828)"><g><path d="M 13.238281 -10.003906 L 11.074219 -10.003906 L 11.074219 -9.996094 L 11.074219 -10.003906 L 10.882812 -10.003906 C 10.8125 -10.003906 10.761719 -9.976562 10.738281 -9.914062 C 10.710938 -9.855469 10.710938 -9.804688 10.75 -9.753906 L 10.789062 -9.714844 C 10.890625 -9.59375 10.921875 -9.472656 10.882812 -9.332031 L 9.21875 -3.582031 C 9.199219 -3.523438 9.160156 -3.492188 9.097656 -3.492188 C 9.039062 -3.492188 9 -3.523438 8.980469 -3.582031 L 8.253906 -6.109375 C 8.203125 -6.25 8.234375 -6.382812 8.34375 -6.492188 L 8.363281 -6.511719 C 8.394531 -6.5625 8.394531 -6.613281 8.363281 -6.671875 C 8.335938 -6.722656 8.285156 -6.753906 8.222656 -6.753906 L 5.769531 -6.753906 C 5.707031 -6.753906 5.65625 -6.722656 5.625 -6.671875 C 5.597656 -6.613281 5.597656 -6.5625 5.636719 -6.511719 L 5.65625 -6.492188 C 5.757812 -6.371094 5.789062 -6.25 5.746094 -6.109375 L 5.023438 -3.582031 C 5.003906 -3.523438 4.960938 -3.492188 4.902344 -3.492188 C 4.832031 -3.492188 4.792969 -3.523438 4.78125 -3.582031 L 3.121094 -9.332031 C 3.082031 -9.472656 3.109375 -9.59375 3.210938 -9.714844 L 3.25 -9.753906 C 3.28125 -9.804688 3.28125 -9.855469 3.261719 -9.914062 C 3.230469 -9.976562 3.179688 -10.003906 3.121094 -10.003906 L 0.765625 -10.003906 C 0.695312 -10.003906 0.644531 -9.976562 0.625 -9.914062 C 0.59375 -9.855469 0.59375 -9.804688 0.632812 -9.753906 C 0.894531 -9.511719 1.078125 -9.210938 1.175781 -8.867188 L 3.554688 -0.652344 C 3.59375 -0.503906 3.554688 -0.371094 3.453125 -0.25 C 3.414062 -0.191406 3.414062 -0.140625 3.441406 -0.0820312 C 3.472656 -0.0195312 3.523438 0 3.582031 0 L 6.210938 0 C 6.269531 0 6.3125 -0.0195312 6.339844 -0.0820312 C 6.371094 -0.140625 6.371094 -0.191406 6.339844 -0.25 L 6.332031 -0.25 C 6.230469 -0.351562 6.199219 -0.484375 6.242188 -0.632812 L 6.875 -2.828125 C 6.894531 -2.890625 6.933594 -2.917969 6.996094 -2.917969 C 7.054688 -2.917969 7.105469 -2.890625 7.125 -2.828125 L 7.75 -0.644531 C 7.789062 -0.492188 7.761719 -0.363281 7.660156 -0.261719 L 7.648438 -0.25 C 7.609375 -0.191406 7.609375 -0.140625 7.640625 -0.0820312 C 7.671875 -0.0195312 7.71875 0 7.78125 0 L 10.429688 0 C 10.488281 0 10.539062 -0.0195312 10.558594 -0.0820312 C 10.578125 -0.140625 10.578125 -0.191406 10.539062 -0.25 C 10.429688 -0.351562 10.398438 -0.484375 10.449219 -0.625 L 12.824219 -8.878906 C 12.875 -9.039062 12.945312 -9.199219 13.035156 -9.351562 C 13.117188 -9.503906 13.226562 -9.632812 13.367188 -9.753906 C 13.398438 -9.804688 13.398438 -9.855469 13.378906 -9.914062 C 13.347656 -9.976562 13.296875 -10.003906 13.238281 -10.003906 Z M 13.238281 -10.003906 "/></g></g></g><g fill="#ffc1b2" fill-opacity="0.502"><g transform="translate(43.450343, 22.120828)"><g><path d="M 9.160156 -0.179688 C 9.160156 -0.222656 9.140625 -0.25 9.109375 -0.273438 C 8.878906 -0.464844 8.726562 -0.703125 8.648438 -1.007812 L 6.242188 -9.320312 C 6.191406 -9.480469 6.21875 -9.632812 6.339844 -9.753906 C 6.371094 -9.804688 6.371094 -9.855469 6.351562 -9.914062 C 6.320312 -9.976562 6.269531 -10.003906 6.210938 -10.003906 L 3.554688 -10.003906 C 3.492188 -10.003906 3.441406 -9.976562 3.414062 -9.914062 C 3.382812 -9.855469 3.382812 -9.804688 3.421875 -9.753906 C 3.542969 -9.632812 3.574219 -9.480469 3.523438 -9.320312 L 1.128906 -0.996094 C 1.046875 -0.714844 0.886719 -0.472656 0.652344 -0.273438 C 0.625 -0.242188 0.605469 -0.210938 0.605469 -0.179688 C 0.59375 -0.128906 0.605469 -0.0898438 0.632812 -0.0507812 C 0.664062 -0.0117188 0.703125 0 0.765625 0 L 3.101562 0 C 3.160156 0 3.210938 -0.0195312 3.230469 -0.0820312 C 3.25 -0.140625 3.25 -0.191406 3.210938 -0.242188 C 3.089844 -0.363281 3.058594 -0.511719 3.101562 -0.675781 L 3.414062 -1.722656 C 3.441406 -1.832031 3.503906 -1.921875 3.59375 -1.984375 C 3.675781 -2.042969 3.773438 -2.082031 3.894531 -2.082031 L 5.878906 -2.082031 C 5.988281 -2.082031 6.089844 -2.042969 6.179688 -1.984375 C 6.261719 -1.921875 6.320312 -1.832031 6.363281 -1.722656 L 6.664062 -0.675781 C 6.703125 -0.511719 6.664062 -0.371094 6.5625 -0.25 L 6.5625 -0.242188 C 6.523438 -0.179688 6.523438 -0.128906 6.554688 -0.0820312 C 6.574219 -0.0195312 6.625 0 6.695312 0 L 9.007812 0 C 9.058594 0 9.097656 -0.0117188 9.128906 -0.0507812 C 9.160156 -0.0898438 9.171875 -0.128906 9.160156 -0.179688 Z M 5.535156 -4.078125 L 4.238281 -4.078125 C 4.199219 -4.078125 4.167969 -4.085938 4.148438 -4.117188 C 4.117188 -4.148438 4.105469 -4.1875 4.128906 -4.226562 L 4.78125 -6.472656 C 4.792969 -6.523438 4.820312 -6.554688 4.882812 -6.554688 C 4.941406 -6.554688 4.972656 -6.523438 4.992188 -6.472656 L 5.636719 -4.226562 C 5.648438 -4.1875 5.636719 -4.148438 5.617188 -4.117188 C 5.597656 -4.085938 5.566406 -4.078125 5.535156 -4.078125 Z M 5.535156 -4.078125 "/></g></g></g><g fill="#ffc1b2" fill-opacity="0.502"><g transform="translate(53.219682, 22.120828)"><g><path d="M 8.234375 -0.25 L 8.082031 -0.371094 C 7.921875 -0.503906 7.78125 -0.664062 7.671875 -0.84375 L 6.421875 -2.839844 C 6.382812 -2.898438 6.363281 -2.96875 6.382812 -3.050781 C 6.402344 -3.121094 6.441406 -3.179688 6.511719 -3.230469 C 6.765625 -3.414062 6.984375 -3.613281 7.167969 -3.84375 C 7.4375 -4.175781 7.648438 -4.558594 7.789062 -4.984375 C 7.933594 -5.40625 8.011719 -5.847656 8.011719 -6.3125 C 8.011719 -6.773438 7.933594 -7.226562 7.789062 -7.648438 C 7.648438 -8.074219 7.4375 -8.457031 7.167969 -8.796875 C 6.84375 -9.179688 6.453125 -9.480469 6.007812 -9.691406 C 5.554688 -9.894531 5.0625 -10.003906 4.539062 -10.003906 L 1.359375 -10.003906 C 1.289062 -10.003906 1.238281 -9.976562 1.21875 -9.914062 C 1.1875 -9.855469 1.199219 -9.804688 1.25 -9.753906 C 1.410156 -9.574219 1.5 -9.359375 1.5 -9.121094 L 1.5 -0.867188 C 1.5 -0.632812 1.417969 -0.433594 1.269531 -0.261719 C 1.207031 -0.203125 1.199219 -0.152344 1.226562 -0.0898438 C 1.25 -0.03125 1.296875 0 1.378906 0 L 3.632812 0 C 3.695312 0 3.746094 -0.0195312 3.765625 -0.0820312 C 3.785156 -0.140625 3.785156 -0.191406 3.746094 -0.25 C 3.574219 -0.433594 3.492188 -0.632812 3.492188 -0.875 L 3.492188 -2.34375 C 3.492188 -2.425781 3.511719 -2.496094 3.574219 -2.558594 C 3.632812 -2.617188 3.703125 -2.648438 3.785156 -2.648438 L 4.027344 -2.648438 C 4.128906 -2.648438 4.21875 -2.597656 4.277344 -2.507812 L 5.515625 -0.511719 C 5.566406 -0.421875 5.554688 -0.34375 5.496094 -0.261719 L 5.484375 -0.25 C 5.445312 -0.191406 5.445312 -0.140625 5.476562 -0.0820312 C 5.496094 -0.0195312 5.546875 0 5.617188 0 L 8.164062 0 C 8.234375 0 8.273438 -0.03125 8.292969 -0.0898438 C 8.3125 -0.152344 8.292969 -0.203125 8.234375 -0.25 Z M 5.625 -5.113281 C 5.375 -4.792969 5.011719 -4.640625 4.539062 -4.640625 L 3.785156 -4.640625 C 3.703125 -4.640625 3.632812 -4.660156 3.574219 -4.722656 C 3.511719 -4.78125 3.492188 -4.851562 3.492188 -4.933594 L 3.492188 -7.710938 C 3.492188 -7.789062 3.511719 -7.863281 3.574219 -7.921875 C 3.632812 -7.980469 3.703125 -8.011719 3.785156 -8.011719 L 4.539062 -8.011719 C 4.902344 -8.011719 5.171875 -7.933594 5.375 -7.769531 C 5.578125 -7.609375 5.71875 -7.429688 5.816406 -7.226562 C 5.910156 -7.027344 5.96875 -6.835938 5.988281 -6.652344 C 6.007812 -6.472656 6.019531 -6.351562 6.019531 -6.3125 C 6.019531 -6.070312 5.980469 -5.847656 5.917969 -5.648438 C 5.847656 -5.445312 5.746094 -5.265625 5.625 -5.113281 Z M 5.625 -5.113281 "/></g></g></g><g fill="#03989e" fill-opacity="1"><g transform="translate(9.337993, 22.23393)"><g><path d="M 9.160156 -0.179688 C 9.160156 -0.222656 9.140625 -0.25 9.109375 -0.273438 C 8.878906 -0.464844 8.726562 -0.703125 8.648438 -1.007812 L 6.242188 -9.320312 C 6.191406 -9.480469 6.21875 -9.632812 6.339844 -9.753906 C 6.371094 -9.804688 6.371094 -9.855469 6.351562 -9.914062 C 6.320312 -9.976562 6.269531 -10.003906 6.210938 -10.003906 L 3.554688 -10.003906 C 3.492188 -10.003906 3.441406 -9.976562 3.414062 -9.914062 C 3.382812 -9.855469 3.382812 -9.804688 3.421875 -9.753906 C 3.542969 -9.632812 3.574219 -9.480469 3.523438 -9.320312 L 1.128906 -0.996094 C 1.046875 -0.714844 0.886719 -0.472656 0.652344 -0.273438 C 0.625 -0.242188 0.605469 -0.210938 0.605469 -0.179688 C 0.59375 -0.128906 0.605469 -0.0898438 0.632812 -0.0507812 C 0.664062 -0.0117188 0.703125 0 0.765625 0 L 3.101562 0 C 3.160156 0 3.210938 -0.0195312 3.230469 -0.0820312 C 3.25 -0.140625 3.25 -0.191406 3.210938 -0.242188 C 3.089844 -0.363281 3.058594 -0.511719 3.101562 -0.675781 L 3.414062 -1.722656 C 3.441406 -1.832031 3.503906 -1.921875 3.59375 -1.984375 C 3.675781 -2.042969 3.773438 -2.082031 3.894531 -2.082031 L 5.878906 -2.082031 C 5.988281 -2.082031 6.089844 -2.042969 6.179688 -1.984375 C 6.261719 -1.921875 6.320312 -1.832031 6.363281 -1.722656 L 6.664062 -0.675781 C 6.703125 -0.511719 6.664062 -0.371094 6.5625 -0.25 L 6.5625 -0.242188 C 6.523438 -0.179688 6.523438 -0.128906 6.554688 -0.0820312 C 6.574219 -0.0195312 6.625 0 6.695312 0 L 9.007812 0 C 9.058594 0 9.097656 -0.0117188 9.128906 -0.0507812 C 9.160156 -0.0898438 9.171875 -0.128906 9.160156 -0.179688 Z M 5.535156 -4.078125 L 4.238281 -4.078125 C 4.199219 -4.078125 4.167969 -4.085938 4.148438 -4.117188 C 4.117188 -4.148438 4.105469 -4.1875 4.128906 -4.226562 L 4.78125 -6.472656 C 4.792969 -6.523438 4.820312 -6.554688 4.882812 -6.554688 C 4.941406 -6.554688 4.972656 -6.523438 4.992188 -6.472656 L 5.636719 -4.226562 C 5.648438 -4.1875 5.636719 -4.148438 5.617188 -4.117188 C 5.597656 -4.085938 5.566406 -4.078125 5.535156 -4.078125 Z M 5.535156 -4.078125 "/></g></g></g><g fill="#03989e" fill-opacity="1"><g transform="translate(19.107332, 22.23393)"><g><path d="M 9.382812 -0.25 L 9.371094 -0.261719 C 9.210938 -0.421875 9.140625 -0.625 9.140625 -0.867188 L 9.140625 -9.140625 C 9.140625 -9.371094 9.210938 -9.574219 9.371094 -9.742188 L 9.382812 -9.753906 C 9.410156 -9.804688 9.410156 -9.855469 9.390625 -9.914062 C 9.359375 -9.976562 9.3125 -10.003906 9.25 -10.003906 L 7.027344 -10.003906 C 6.957031 -10.003906 6.90625 -9.976562 6.886719 -9.914062 C 6.855469 -9.855469 6.855469 -9.804688 6.894531 -9.753906 L 6.90625 -9.742188 C 7.054688 -9.574219 7.136719 -9.371094 7.136719 -9.140625 L 7.136719 -4.136719 C 7.136719 -4.097656 7.117188 -4.066406 7.078125 -4.054688 C 7.035156 -4.046875 7.003906 -4.054688 6.984375 -4.097656 L 3.835938 -9.390625 C 3.753906 -9.511719 3.773438 -9.632812 3.875 -9.753906 C 3.90625 -9.804688 3.90625 -9.855469 3.886719 -9.914062 C 3.855469 -9.976562 3.804688 -10.003906 3.746094 -10.003906 L 3.472656 -10.003906 L 3.472656 -9.996094 L 3.472656 -10.003906 L 1.367188 -10.003906 C 1.296875 -10.003906 1.25 -9.976562 1.226562 -9.914062 C 1.199219 -9.855469 1.199219 -9.804688 1.238281 -9.753906 C 1.398438 -9.574219 1.480469 -9.371094 1.480469 -9.148438 L 1.480469 -0.855469 C 1.480469 -0.625 1.398438 -0.421875 1.238281 -0.25 C 1.199219 -0.191406 1.199219 -0.140625 1.226562 -0.0820312 C 1.25 -0.0195312 1.296875 0 1.367188 0 L 3.59375 0 C 3.652344 0 3.703125 -0.0195312 3.734375 -0.0820312 C 3.753906 -0.140625 3.753906 -0.191406 3.722656 -0.25 L 3.703125 -0.273438 C 3.542969 -0.433594 3.472656 -0.632812 3.472656 -0.875 L 3.472656 -5.867188 C 3.472656 -5.910156 3.484375 -5.929688 3.523438 -5.9375 C 3.5625 -5.949219 3.59375 -5.9375 3.625 -5.910156 L 6.785156 -0.605469 C 6.84375 -0.472656 6.835938 -0.351562 6.742188 -0.25 C 6.703125 -0.191406 6.703125 -0.140625 6.734375 -0.0820312 C 6.753906 -0.0195312 6.804688 0 6.875 0 L 9.25 0 C 9.3125 0 9.359375 -0.0195312 9.390625 -0.0820312 C 9.410156 -0.140625 9.410156 -0.191406 9.382812 -0.25 Z M 9.382812 -0.25 "/></g></g></g><g fill="#03989e" fill-opacity="1"><g transform="translate(29.721798, 22.23393)"><g><path d="M 13.238281 -10.003906 L 11.074219 -10.003906 L 11.074219 -9.996094 L 11.074219 -10.003906 L 10.882812 -10.003906 C 10.8125 -10.003906 10.761719 -9.976562 10.738281 -9.914062 C 10.710938 -9.855469 10.710938 -9.804688 10.75 -9.753906 L 10.789062 -9.714844 C 10.890625 -9.59375 10.921875 -9.472656 10.882812 -9.332031 L 9.21875 -3.582031 C 9.199219 -3.523438 9.160156 -3.492188 9.097656 -3.492188 C 9.039062 -3.492188 9 -3.523438 8.980469 -3.582031 L 8.253906 -6.109375 C 8.203125 -6.25 8.234375 -6.382812 8.34375 -6.492188 L 8.363281 -6.511719 C 8.394531 -6.5625 8.394531 -6.613281 8.363281 -6.671875 C 8.335938 -6.722656 8.285156 -6.753906 8.222656 -6.753906 L 5.769531 -6.753906 C 5.707031 -6.753906 5.65625 -6.722656 5.625 -6.671875 C 5.597656 -6.613281 5.597656 -6.5625 5.636719 -6.511719 L 5.65625 -6.492188 C 5.757812 -6.371094 5.789062 -6.25 5.746094 -6.109375 L 5.023438 -3.582031 C 5.003906 -3.523438 4.960938 -3.492188 4.902344 -3.492188 C 4.832031 -3.492188 4.792969 -3.523438 4.78125 -3.582031 L 3.121094 -9.332031 C 3.082031 -9.472656 3.109375 -9.59375 3.210938 -9.714844 L 3.25 -9.753906 C 3.28125 -9.804688 3.28125 -9.855469 3.261719 -9.914062 C 3.230469 -9.976562 3.179688 -10.003906 3.121094 -10.003906 L 0.765625 -10.003906 C 0.695312 -10.003906 0.644531 -9.976562 0.625 -9.914062 C 0.59375 -9.855469 0.59375 -9.804688 0.632812 -9.753906 C 0.894531 -9.511719 1.078125 -9.210938 1.175781 -8.867188 L 3.554688 -0.652344 C 3.59375 -0.503906 3.554688 -0.371094 3.453125 -0.25 C 3.414062 -0.191406 3.414062 -0.140625 3.441406 -0.0820312 C 3.472656 -0.0195312 3.523438 0 3.582031 0 L 6.210938 0 C 6.269531 0 6.3125 -0.0195312 6.339844 -0.0820312 C 6.371094 -0.140625 6.371094 -0.191406 6.339844 -0.25 L 6.332031 -0.25 C 6.230469 -0.351562 6.199219 -0.484375 6.242188 -0.632812 L 6.875 -2.828125 C 6.894531 -2.890625 6.933594 -2.917969 6.996094 -2.917969 C 7.054688 -2.917969 7.105469 -2.890625 7.125 -2.828125 L 7.75 -0.644531 C 7.789062 -0.492188 7.761719 -0.363281 7.660156 -0.261719 L 7.648438 -0.25 C 7.609375 -0.191406 7.609375 -0.140625 7.640625 -0.0820312 C 7.671875 -0.0195312 7.71875 0 7.78125 0 L 10.429688 0 C 10.488281 0 10.539062 -0.0195312 10.558594 -0.0820312 C 10.578125 -0.140625 10.578125 -0.191406 10.539062 -0.25 C 10.429688 -0.351562 10.398438 -0.484375 10.449219 -0.625 L 12.824219 -8.878906 C 12.875 -9.039062 12.945312 -9.199219 13.035156 -9.351562 C 13.117188 -9.503906 13.226562 -9.632812 13.367188 -9.753906 C 13.398438 -9.804688 13.398438 -9.855469 13.378906 -9.914062 C 13.347656 -9.976562 13.296875 -10.003906 13.238281 -10.003906 Z M 13.238281 -10.003906 "/></g></g></g><g fill="#03989e" fill-opacity="1"><g transform="translate(43.716796, 22.23393)"><g><path d="M 9.160156 -0.179688 C 9.160156 -0.222656 9.140625 -0.25 9.109375 -0.273438 C 8.878906 -0.464844 8.726562 -0.703125 8.648438 -1.007812 L 6.242188 -9.320312 C 6.191406 -9.480469 6.21875 -9.632812 6.339844 -9.753906 C 6.371094 -9.804688 6.371094 -9.855469 6.351562 -9.914062 C 6.320312 -9.976562 6.269531 -10.003906 6.210938 -10.003906 L 3.554688 -10.003906 C 3.492188 -10.003906 3.441406 -9.976562 3.414062 -9.914062 C 3.382812 -9.855469 3.382812 -9.804688 3.421875 -9.753906 C 3.542969 -9.632812 3.574219 -9.480469 3.523438 -9.320312 L 1.128906 -0.996094 C 1.046875 -0.714844 0.886719 -0.472656 0.652344 -0.273438 C 0.625 -0.242188 0.605469 -0.210938 0.605469 -0.179688 C 0.59375 -0.128906 0.605469 -0.0898438 0.632812 -0.0507812 C 0.664062 -0.0117188 0.703125 0 0.765625 0 L 3.101562 0 C 3.160156 0 3.210938 -0.0195312 3.230469 -0.0820312 C 3.25 -0.140625 3.25 -0.191406 3.210938 -0.242188 C 3.089844 -0.363281 3.058594 -0.511719 3.101562 -0.675781 L 3.414062 -1.722656 C 3.441406 -1.832031 3.503906 -1.921875 3.59375 -1.984375 C 3.675781 -2.042969 3.773438 -2.082031 3.894531 -2.082031 L 5.878906 -2.082031 C 5.988281 -2.082031 6.089844 -2.042969 6.179688 -1.984375 C 6.261719 -1.921875 6.320312 -1.832031 6.363281 -1.722656 L 6.664062 -0.675781 C 6.703125 -0.511719 6.664062 -0.371094 6.5625 -0.25 L 6.5625 -0.242188 C 6.523438 -0.179688 6.523438 -0.128906 6.554688 -0.0820312 C 6.574219 -0.0195312 6.625 0 6.695312 0 L 9.007812 0 C 9.058594 0 9.097656 -0.0117188 9.128906 -0.0507812 C 9.160156 -0.0898438 9.171875 -0.128906 9.160156 -0.179688 Z M 5.535156 -4.078125 L 4.238281 -4.078125 C 4.199219 -4.078125 4.167969 -4.085938 4.148438 -4.117188 C 4.117188 -4.148438 4.105469 -4.1875 4.128906 -4.226562 L 4.78125 -6.472656 C 4.792969 -6.523438 4.820312 -6.554688 4.882812 -6.554688 C 4.941406 -6.554688 4.972656 -6.523438 4.992188 -6.472656 L 5.636719 -4.226562 C 5.648438 -4.1875 5.636719 -4.148438 5.617188 -4.117188 C 5.597656 -4.085938 5.566406 -4.078125 5.535156 -4.078125 Z M 5.535156 -4.078125 "/></g></g></g><g fill="#03989e" fill-opacity="1"><g transform="translate(53.486135, 22.23393)"><g><path d="M 8.234375 -0.25 L 8.082031 -0.371094 C 7.921875 -0.503906 7.78125 -0.664062 7.671875 -0.84375 L 6.421875 -2.839844 C 6.382812 -2.898438 6.363281 -2.96875 6.382812 -3.050781 C 6.402344 -3.121094 6.441406 -3.179688 6.511719 -3.230469 C 6.765625 -3.414062 6.984375 -3.613281 7.167969 -3.84375 C 7.4375 -4.175781 7.648438 -4.558594 7.789062 -4.984375 C 7.933594 -5.40625 8.011719 -5.847656 8.011719 -6.3125 C 8.011719 -6.773438 7.933594 -7.226562 7.789062 -7.648438 C 7.648438 -8.074219 7.4375 -8.457031 7.167969 -8.796875 C 6.84375 -9.179688 6.453125 -9.480469 6.007812 -9.691406 C 5.554688 -9.894531 5.0625 -10.003906 4.539062 -10.003906 L 1.359375 -10.003906 C 1.289062 -10.003906 1.238281 -9.976562 1.21875 -9.914062 C 1.1875 -9.855469 1.199219 -9.804688 1.25 -9.753906 C 1.410156 -9.574219 1.5 -9.359375 1.5 -9.121094 L 1.5 -0.867188 C 1.5 -0.632812 1.417969 -0.433594 1.269531 -0.261719 C 1.207031 -0.203125 1.199219 -0.152344 1.226562 -0.0898438 C 1.25 -0.03125 1.296875 0 1.378906 0 L 3.632812 0 C 3.695312 0 3.746094 -0.0195312 3.765625 -0.0820312 C 3.785156 -0.140625 3.785156 -0.191406 3.746094 -0.25 C 3.574219 -0.433594 3.492188 -0.632812 3.492188 -0.875 L 3.492188 -2.34375 C 3.492188 -2.425781 3.511719 -2.496094 3.574219 -2.558594 C 3.632812 -2.617188 3.703125 -2.648438 3.785156 -2.648438 L 4.027344 -2.648438 C 4.128906 -2.648438 4.21875 -2.597656 4.277344 -2.507812 L 5.515625 -0.511719 C 5.566406 -0.421875 5.554688 -0.34375 5.496094 -0.261719 L 5.484375 -0.25 C 5.445312 -0.191406 5.445312 -0.140625 5.476562 -0.0820312 C 5.496094 -0.0195312 5.546875 0 5.617188 0 L 8.164062 0 C 8.234375 0 8.273438 -0.03125 8.292969 -0.0898438 C 8.3125 -0.152344 8.292969 -0.203125 8.234375 -0.25 Z M 5.625 -5.113281 C 5.375 -4.792969 5.011719 -4.640625 4.539062 -4.640625 L 3.785156 -4.640625 C 3.703125 -4.640625 3.632812 -4.660156 3.574219 -4.722656 C 3.511719 -4.78125 3.492188 -4.851562 3.492188 -4.933594 L 3.492188 -7.710938 C 3.492188 -7.789062 3.511719 -7.863281 3.574219 -7.921875 C 3.632812 -7.980469 3.703125 -8.011719 3.785156 -8.011719 L 4.539062 -8.011719 C 4.902344 -8.011719 5.171875 -7.933594 5.375 -7.769531 C 5.578125 -7.609375 5.71875 -7.429688 5.816406 -7.226562 C 5.910156 -7.027344 5.96875 -6.835938 5.988281 -6.652344 C 6.007812 -6.472656 6.019531 -6.351562 6.019531 -6.3125 C 6.019531 -6.070312 5.980469 -5.847656 5.917969 -5.648438 C 5.847656 -5.445312 5.746094 -5.265625 5.625 -5.113281 Z M 5.625 -5.113281 "/></g></g></g></svg>
